<?xml version="1.0" encoding="utf-8"?>
<!-- Generator: Adobe Illustrator 15.0.0, SVG Export Plug-In . SVG Version: 6.00 Build 0)  -->
<!DOCTYPE svg PUBLIC "-//W3C//DTD SVG 1.1//EN" "http://www.w3.org/Graphics/SVG/1.1/DTD/svg11.dtd">
<svg version="1.1" id="Layer_1" xmlns="http://www.w3.org/2000/svg" xmlns:xlink="http://www.w3.org/1999/xlink" x="0px" y="0px"
	 width="100px" height="70px" viewBox="0 0 100 70" enable-background="new 0 0 100 70" xml:space="preserve">
<rect fill="#337AB7" width="100" height="70"/>
<path fill="#FFFFFF" stroke="#FFFFFF" stroke-width="2" stroke-miterlimit="10" d="M86.523,14.674l-11.662-0.678l-22.697-0.473
	l-27.985-0.628l-2.573,4.458l-0.156,0.17l-2.558,23.131l-2.14,14.941l-0.162,1.778l1.353-0.032l7.573-0.134l53.153,2.911
	l0.184-0.082l-0.041,0.104l0.055-0.113l1.688-1.824l1.346-2.451L86.523,14.674z M77.934,17.569L44.217,35.139l-17.6-17.302
	L77.934,17.569z M78.408,55.824L26.431,53.29l-6.109,0.217l3.586-32.771l11.649,12.097l6.398,6.605l5.055-2.419l36.005-17.864
	L78.408,55.824z"/>
</svg>
