<?xml version="1.0" encoding="utf-8"?>
<!-- Generator: Adobe Illustrator 15.0.0, SVG Export Plug-In . SVG Version: 6.00 Build 0)  -->
<!DOCTYPE svg PUBLIC "-//W3C//DTD SVG 1.1//EN" "http://www.w3.org/Graphics/SVG/1.1/DTD/svg11.dtd">
<svg version="1.1" id="Layer_1" xmlns="http://www.w3.org/2000/svg" xmlns:xlink="http://www.w3.org/1999/xlink" x="0px" y="0px"
	 width="500px" height="150px" viewBox="0 0 500 150" enable-background="new 0 0 500 150" xml:space="preserve">
<path fill="#FFFFFF" d="M443.773,115.504V87.327h28.709V56.582h-28.709V32.52h32.895V1.774h-58.63v113.729h-24.356V1.774h-22.565
	H367.9h-22.565v94.913c0,9.725-1.625,14.91-2.987,17.549c-1.56,3.019-2.854,3.019-3.8,3.019c-0.907,0-2.149,0-3.731-3.063
	c-1.373-2.656-3.01-7.865-3.01-17.592V1.774h-20.109h-5.535h-51.244h-6.4h-19.381v94.913c0,9.725-1.625,14.91-2.987,17.549
	c-1.56,3.019-2.854,3.019-3.799,3.019c-0.907,0-2.149,0-3.732-3.063c-1.373-2.656-3.01-7.865-3.01-17.592V1.774h-25.644v83.954
	l-16.69-83.954h-7.683h-6.252h-7.664l-22.568,113.729h-23.054V1.774H92.384H80.272H63.114L47.59,35.019V1.774H21.854v144.475H47.59
	v-43.675l17.299,43.675h15.383h13.353h29.381h14.439h11.98l6.232-33.356h13.654l6.324,33.356h26.359l-2.029-10.206
	C207.035,145.814,215.874,148,222.35,148h0.32l2.639-0.199l0.541-0.058c6.509-0.912,15.594-4.637,22.077-17.112v15.618h65.226
	V131.17c0.225,0.423,0.448,0.846,0.684,1.257C321.198,145.298,331.338,148,338.548,148h0.319l2.64-0.199l0.54-0.058
	c6.566-0.92,15.757-4.689,22.25-17.428c1.435-2.814,2.619-5.901,3.604-9.198v25.132h50.138h7.036h52.049v-30.745H443.773z
	 M161.49,82.146l1.002-5.32l1.007,5.32H161.49z M80.272,112.445l-18.016-45.61l18.016-38.905V112.445z M280.649,32.52
	l-26.083,72.648c0.212-2.648,0.345-5.374,0.352-8.218V32.52H280.649z M278.839,115.504l27.323-76.072v57.732
	c0.031,6.783,0.58,12.87,1.648,18.34H278.839z"/>
<g>
	<path fill="#337AB7" d="M103.397,78l-23.768,62.232v-6.92H46.883l31.39-45.409V78H29.051v12.685h30.707l-31.26,45.251V146h48.928
		h2.203h12.698l5.834-16.225h21.767L125.85,146h14.839l-26.008-68H103.397z M102.803,117.09l6.243-17.211l6.27,17.211H102.803z"/>
	<path fill="#337AB7" d="M324.612,78l-23.762,62.227v-6.914h-32.752l31.392-45.409V78h-49.228v12.685h30.709l-31.256,45.251v3.416
		L226.244,78h-11.283l-22.872,59.895l-22.32-29.365L196.975,78h-17.907l-23.213,25.832V78h-14.176v68h14.176v-22.742l4.314-4.482
		L180.92,146h8.075h9.256h5.639l5.837-16.225h21.767L237.413,146h12.303h2.544h46.386h2.205h12.689l5.833-16.225h21.768L347.063,146
		h14.847l-26.016-68H324.612z M214.367,117.09l6.243-17.213l6.271,17.213H214.367z M324.02,117.09l6.24-17.21l6.268,17.21H324.02z"
		/>
	<polygon fill="#337AB7" points="402.416,118.898 375.738,78 362.898,78 362.898,146 377.113,146 377.113,105.301 403.703,146 
		416.548,146 416.548,78 402.416,78 	"/>
	<polygon fill="#337AB7" points="439.239,133.313 439.239,117.344 466.115,117.344 466.115,104.654 439.239,104.654 439.239,90.685 
		470.028,90.685 470.028,78 425.063,78 425.063,146 470.454,146 470.454,133.313 	"/>
</g>
</svg>
