<?xml version="1.0" encoding="utf-8"?>
<!-- Generator: Adobe Illustrator 15.0.0, SVG Export Plug-In . SVG Version: 6.00 Build 0)  -->
<!DOCTYPE svg PUBLIC "-//W3C//DTD SVG 1.1//EN" "http://www.w3.org/Graphics/SVG/1.1/DTD/svg11.dtd">
<svg version="1.1" id="Layer_1" xmlns="http://www.w3.org/2000/svg" xmlns:xlink="http://www.w3.org/1999/xlink" x="0px" y="0px"
	 width="100px" height="70px" viewBox="0 0 100 70" enable-background="new 0 0 100 70" xml:space="preserve">
<rect fill="#337AB7" width="100" height="70"/>
<path fill="#FFFFFF" d="M59.174,27.187c-2.234-3.822-5.652-6.225-8.949-9.049c-1.582-1.354-3.088-2.834-4.11-4.664
	c-0.287-0.515-0.456-1.063-0.548-1.627c1.707-0.486,3.642-0.339,5.242,0.239c3.422,1.237,4.422,4.665,3.489,7.927
	c0.646-2.262,3.584-3.891,4.24-6.187C60.35,7.482,53.666,3.249,48.201,6.4c-1.231,0.71-1.989,1.969-2.776,3.103
	c-1.218,1.755-2.546,3.493-3.58,5.367c-1.957,3.548,1.222,6.822,3.675,9.046c0.085,0.077,0.172,0.15,0.258,0.227
	c-1.983,1.278-3.38,3.35-4.896,5.563c-1.361,1.985-2.849,3.836-3.294,6.252c-0.497,2.692,0.786,5.492,2.104,7.75
	c2.233,3.821,5.651,6.226,8.949,9.049c1.582,1.354,3.087,2.834,4.11,4.664c0.287,0.515,0.456,1.063,0.549,1.627
	c-1.708,0.486-3.643,0.341-5.242-0.237c-3.421-1.236-4.42-4.666-3.488-7.929c-0.646,2.263-3.585,3.892-4.241,6.188
	c-1.812,6.342,4.871,10.576,10.336,7.424c1.231-0.709,1.989-1.969,2.776-3.102c1.219-1.758,2.547-3.494,3.58-5.367
	c1.957-3.549-1.225-6.822-3.674-9.047c-0.086-0.076-0.176-0.15-0.262-0.229c1.982-1.275,3.381-3.352,4.896-5.563
	c1.359-1.983,2.85-3.836,3.293-6.25C61.773,32.243,60.492,29.443,59.174,27.187z M57.049,40.934c-2.416,1.303-5.785,1.11-8.26,0.518
	c-1.119-0.271-2.215-0.738-3.105-1.471c-0.184-0.221-0.372-0.438-0.547-0.668c-1.425-1.883-2.523-3.988-3.125-6.273
	c-0.267-1.01-0.284-2.046-0.197-3.079c2.418-1.302,5.786-1.11,8.261-0.515c1.119,0.269,2.215,0.737,3.105,1.469
	c0.185,0.221,0.37,0.437,0.547,0.668c1.426,1.882,2.521,3.991,3.125,6.273C57.119,38.865,57.137,39.902,57.049,40.934z"/>
</svg>
