<?xml version="1.0" encoding="utf-8"?>
<!-- Generator: Adobe Illustrator 15.0.0, SVG Export Plug-In . SVG Version: 6.00 Build 0)  -->
<!DOCTYPE svg PUBLIC "-//W3C//DTD SVG 1.1//EN" "http://www.w3.org/Graphics/SVG/1.1/DTD/svg11.dtd">
<svg version="1.1" id="Layer_1" xmlns="http://www.w3.org/2000/svg" xmlns:xlink="http://www.w3.org/1999/xlink" x="0px" y="0px"
	 width="100px" height="70px" viewBox="0 0 100 70" enable-background="new 0 0 100 70" xml:space="preserve">
<rect x="-3.325" y="-7.906" fill="#337AB7" stroke="#FFFFFF" stroke-miterlimit="10" width="106.51" height="80.51"/>
<path fill="#FFFFFF" stroke="#FFFFFF" stroke-width="2" stroke-miterlimit="10" d="M89.461,16.34
	c-4.395-0.693-8.77-1.495-13.164-2.178c-4.094-0.636-8.217-1.188-12.361-1.337c-3.471-0.124-6.906,0.395-10.334,0.863
	c-9.315,1.274-18.582,2.269-27.986,1.372c-0.22-0.021-1.276,2.111-1.387,2.3c-0.051,0.086-0.358,0.694-0.668,1.267
	c-0.226,0.24-0.403,0.477-0.458,0.68c-0.02,0.071-0.041,0.14-0.06,0.211c-0.073,0.106-0.128,0.172-0.156,0.169
	c0.035,0.003,0.07,0.005,0.105,0.009c-2.216,8.015-6.071,15.432-9.163,23.122c-1.565,3.895-2.886,7.885-3.692,12.008
	c-0.19,0.971-0.327,1.951-0.447,2.934c-0.072,0.592-0.117,1.186-0.162,1.779c-0.076,1.014,0.564,0.539,1.353,0.467
	c2.523-0.231,5.047-0.441,7.573-0.633c19.28-1.467,38.706-1.32,57.654,2.91c0.039,0.01,0.104-0.023,0.184-0.082
	c-0.015,0.035-0.027,0.07-0.041,0.105c0.016-0.039,0.036-0.076,0.053-0.113c0.481-0.357,1.533-1.664,1.688-1.824
	c0.162-0.168,1.386-2.162,1.345-1.951c0.143-0.74,0.07-0.568,0.143-0.74c3.801-9.174,4.648-19.016,6.907-28.622
	c0.528-2.249,1.138-4.477,1.831-6.68c0.378-1.199,0.805-2.382,1.254-3.556c0.225-0.588,0.469-1.169,0.715-1.749
	C90.56,16.186,90.227,16.461,89.461,16.34z M50.379,18.384c3.438-0.473,6.877-0.996,10.355-0.942
	c4.299,0.065,8.594,0.7,12.834,1.349c1.938,0.296,3.869,0.618,5.802,0.945c-4.038,1.47-8.011,3.141-12.042,4.639
	c-8.883,3.3-16.456,9.259-25.174,12.931c0.935-0.395-3.899-6.365-4.268-6.775c-1.292-1.435-2.669-2.802-4.099-4.099
	c-1.405-1.273-2.713-2.665-3.932-4.116c-0.483-0.577-1.189-1.399-1.802-2.313C35.528,20.211,42.944,19.407,50.379,18.384z
	 M87.211,22.28c-0.488,1.158-0.916,2.342-1.328,3.53c-0.824,2.379-1.477,4.815-2.078,7.258c-2.042,8.311-3.264,16.807-5.959,24.922
	c-18.102-3.764-36.587-3.871-54.979-2.535c-2.292,0.166-4.583,0.359-6.873,0.561c-0.461,0.041-0.922,0.082-1.384,0.125
	c-0.803,0.072-1.412,0.543-1.353-0.469c0.069-1.188,0.225-2.367,0.405-3.543c0.663-4.338,2.083-8.537,3.673-12.613
	c2.183-5.6,4.837-11.016,7.008-16.614c0.475,1.157,1.331,2.263,1.962,3.098c1.341,1.772,2.91,3.398,4.541,4.906
	c1.254,1.159,2.475,2.349,3.646,3.593c1.833,1.947,4.25,4.388,4.777,7.117c-0.033,0.404,0.175,0.4,0.622-0.013
	c0.586-0.247,1.164-0.511,1.742-0.776c1.121-0.514,2.22-1.072,3.313-1.643c2.103-1.096,4.152-2.295,6.2-3.488
	c4.133-2.41,8.279-4.767,12.732-6.544c3.975-1.586,8.008-3.018,11.977-4.624c3.443-1.394,6.963-2.43,10.596-3.207
	c0.1-0.021,0.229-0.152,0.365-0.34c0.137,0.021,0.271,0.043,0.408,0.064C88.092,21.182,87.469,21.671,87.211,22.28z"/>
</svg>
