<?xml version="1.0" encoding="utf-8"?>
<!-- Generator: Adobe Illustrator 15.0.0, SVG Export Plug-In . SVG Version: 6.00 Build 0)  -->
<!DOCTYPE svg PUBLIC "-//W3C//DTD SVG 1.1//EN" "http://www.w3.org/Graphics/SVG/1.1/DTD/svg11.dtd">
<svg version="1.1" id="Layer_1" xmlns="http://www.w3.org/2000/svg" xmlns:xlink="http://www.w3.org/1999/xlink" x="0px" y="0px"
	 width="100px" height="70px" viewBox="0 0 100 70" enable-background="new 0 0 100 70" xml:space="preserve">
<rect x="-3.258" y="-4.696" fill="#337AB7" stroke="#FFFFFF" stroke-miterlimit="10" width="106.51" height="80.51"/>
<g>
	<g>
		<path fill="#FFFFFF" stroke="#FFFFFF" stroke-width="3" stroke-miterlimit="10" d="M36.992,44.006
			c3.001-1.236,5.311-3.363,7.4-5.799c0.924-1.076,1.777-2.214,2.637-3.343c0.508-0.666,1.254-1.407,1.665-2.146
			c-0.099,0.177-0.189,0.358-0.279,0.54c-1.766,3.585-3.057,7.458-4.359,11.229c-1.398,4.047-2.932,8.281-3.436,12.557
			c-0.202,1.709,0.414,3.25,2.201,3.766c2.404,0.693,5.356-1.229,7.098-2.666c1.497-1.232,1.83-3.86,3.306-5.078
			c-2.377,1.961-7.731,4.804-9.29,0.484c-0.309-0.855,0.052-2.139,0.206-2.986c0.289-1.596,0.725-3.166,1.17-4.725
			c1.028-3.598,2.262-7.141,3.561-10.648c0.923-2.493,1.792-5.142,3.089-7.476c0.018-0.031,0.035-0.063,0.053-0.095
			c-3.392,4.28-6.462,9.146-11.714,11.309c-0.581,0.24-1.354,2.025-1.678,2.522C38.319,41.91,37.513,43.791,36.992,44.006
			L36.992,44.006z"/>
	</g>
	<g>
		<path fill="#FFFFFF" stroke="#FFFFFF" stroke-width="3" stroke-miterlimit="10" d="M55.939,10.165
			c-0.531,0.524-1.16,1.005-1.531,1.663c-0.148,0.262-0.191,0.575-0.195,0.872c-0.012,1.033,0.027,2.069,0.053,3.102
			c0.025,1.035,0.016,2.083,0.111,3.114c0.041,0.43,0.141,0.614,0.477,0.875c0.437,0.337,1.141,0.076,1.638,0.067
			c0.036-0.001-0.095-6.058-0.147-6.058c-0.417,0.009-0.84,0.119-1.254,0.097c-0.142-0.008-0.27-0.089-0.384-0.163
			c-0.084-0.062-0.164-0.128-0.239-0.199c-0.048-0.046-0.095-0.092-0.143-0.138c-0.321-1.518-0.313-0.268,0.031,3.751
			c0.004,0.5,0.008,1,0.012,1.5c0.07-1.081,1.007-1.723,1.72-2.426c0.067-0.066,0-0.872,0-0.888
			c-0.01-0.714-0.024-1.428-0.043-2.142c-0.019-0.714-0.037-1.428-0.062-2.141C55.982,11.073,55.9,10.202,55.939,10.165
			L55.939,10.165z"/>
	</g>
</g>
</svg>
