<?xml version="1.0" encoding="utf-8"?>
<!-- Generator: Adobe Illustrator 15.0.0, SVG Export Plug-In . SVG Version: 6.00 Build 0)  -->
<!DOCTYPE svg PUBLIC "-//W3C//DTD SVG 1.1//EN" "http://www.w3.org/Graphics/SVG/1.1/DTD/svg11.dtd">
<svg version="1.1" id="Layer_1" xmlns="http://www.w3.org/2000/svg" xmlns:xlink="http://www.w3.org/1999/xlink" x="0px" y="0px"
	 width="100px" height="70px" viewBox="0 0 100 70" enable-background="new 0 0 100 70" xml:space="preserve">
<rect fill="#337AB7" width="100" height="70"/>
<g>
	<path fill="#FFFFFF" d="M53.27,51.909c0,0.001-0.001,0.001-0.001,0.002c-1.403,1.157-3.64,2.402-5.236,2.402
		c-0.872,0-1.36-0.368-1.687-1.273c-0.114-0.314,0.081-1.262,0.174-1.717c0.036-0.174,0.069-0.338,0.097-0.491
		c0.273-1.511,0.693-3.029,1.136-4.581c0.881-3.085,1.968-6.335,3.525-10.539l0.471-1.288c0.739-2.039,1.504-4.147,2.515-5.965
		l0.063-0.112l-2.488-1.658c-0.525,0.663-1.043,1.34-1.563,2.019c-2.815,3.681-5.475,7.158-9.547,8.836
		c-0.86,0.354-1.408,1.294-2.087,2.582c-0.113,0.215-0.206,0.399-0.271,0.499c-0.105,0.159-0.265,0.458-0.448,0.813
		c-0.179,0.347-0.599,1.16-0.789,1.36c0.001-0.001,0.095-0.099,0.286-0.178l1.143,2.773c0,0,0,0,0,0
		c0.001-0.001,0.003-0.001,0.005-0.002c2.125-0.877,4.042-2.179,6.005-4.104c-0.218,0.626-0.433,1.249-0.646,1.869l-0.561,1.623
		c-1.35,3.896-2.746,7.927-3.237,12.089c-0.313,2.646,0.941,4.709,3.275,5.384c0.471,0.136,0.972,0.204,1.489,0.204
		c2.605,0,5.233-1.715,6.977-3.153c1.012-0.832,1.573-2.023,2.069-3.074c0.392-0.829,0.762-1.612,1.238-2.005L53.27,51.909
		C53.27,51.909,53.27,51.909,53.27,51.909z"/>
	<path fill="#FFFFFF" d="M58.992,18.934c-0.013-0.85-0.039-2.146-0.068-3.23c-0.038-1.419-0.063-2.348-0.388-2.872l-0.003-0.106
		c-1.199-0.143-1.552-1.559-1.552-1.559l-1.096-2.071c-0.117,0.116-0.24,0.229-0.364,0.344c-0.479,0.444-1.023,0.947-1.418,1.646
		c-0.175,0.309-0.29,0.652-0.348,1.04c-0.243,0.49-0.207,1.303,0.019,4.106l0.006,0.368c0.014,0.797,0.026,1.621,0.104,2.458
		c0.08,0.844,0.385,1.4,1.055,1.921c0.416,0.321,0.928,0.483,1.521,0.483c0.257,0,0.527-0.034,0.786-0.071
		c0.098-0.014,0.191-0.032,0.289-0.034C59.025,21.316,59.006,19.939,58.992,18.934z"/>
</g>
</svg>
