<?xml version="1.0" encoding="utf-8"?>
<!-- Generator: Adobe Illustrator 15.0.0, SVG Export Plug-In . SVG Version: 6.00 Build 0)  -->
<!DOCTYPE svg PUBLIC "-//W3C//DTD SVG 1.1//EN" "http://www.w3.org/Graphics/SVG/1.1/DTD/svg11.dtd">
<svg version="1.1" id="Layer_1" xmlns="http://www.w3.org/2000/svg" xmlns:xlink="http://www.w3.org/1999/xlink" x="0px" y="0px"
	 width="100px" height="70px" viewBox="0 0 100 70" enable-background="new 0 0 100 70" xml:space="preserve">
<rect fill="#337AB7" width="100" height="70"/>
<g>
	<path fill="#FFFFFF" d="M39.784,14.763"/>
	<path fill="#FFFFFF" d="M73.805,8.376c-1.733-1.634-5.979-0.891-8.104-0.775c-3.882,0.212-7.521-0.693-11.305-1.418
		c-4.348-0.834-8.494-2.752-13.005-2.582c-0.637,0.024-1.033,5.405-1.589,5.426c0.585-0.021,0.959-0.035,1.542,0.003
		c-0.792,0.994-0.774,2.918-1.097,4.03c-0.124,0.427-0.328,1.24-0.328,1.24l-0.076,0.341c0,0-0.338,2.011-0.325,3.146
		c0.025,1.98-0.127,3.929-0.369,5.896c-0.138,1.127-0.333,2.246-0.543,3.362c-0.069,0.363-0.148,0.722-0.229,1.083
		c-0.078,0.271-0.165,0.562-0.24,0.775c-1.167,3.329-2.426,6.558-3.512,9.884c-0.142,0.322-0.433,1.278-0.539,1.709
		c-0.149,0.493-0.295,0.985-0.434,1.484c-0.609,2.184-3.06,12.092-3.386,12.935c-0.054,0.139-0.172,0.556-0.324,1.105
		c-0.422,1.438-0.844,2.88-1.267,4.321c0.086-0.221,0.034,0.003,0,0c5.82,0.539,11.626,1.141,17.362,2.297
		c5.635,1.133,10.936,3.521,16.667,4.25c0.01-0.032,0.02-0.068,0.029-0.102c0.23-0.699,1.761-4.965,1.56-5.324
		c-1.618-2.908-1.117-6.633-0.662-9.779c0.484-3.34,1.397-6.602,1.878-9.939c0.802-5.575,1.681-11.106,2.866-16.616
		c0.233-1.084,0.491-2.162,0.763-3.237c0.028-0.054,0.06-0.11,0.093-0.174c0.139-0.268,0.298-0.527,0.451-0.787
		c0.878-1.489,1.791-2.952,2.5-4.531c0.724-1.611,1.109-3.424,1.593-5.113C74.043,10.35,74.639,9.163,73.805,8.376z M70.683,16.582
		c-0.452,1.344-0.881,2.695-1.29,4.052c-0.07-0.19-0.896,2.201-0.483,1.641c-2.204,7.67-3.734,15.528-4.802,23.433
		c-0.496,3.664-1.387,7.244-1.985,10.889c-0.227,1.383-0.457,2.896-0.523,4.408c-4.479-0.924-8.781-2.581-13.237-3.638
		c-5.813-1.382-11.862-1.876-17.8-2.425c0.781-2.456,1.486-4.94,2.17-7.425c0.559-2.038,1.029-4.1,1.468-6.164
		c0.141-0.663,0.272-1.328,0.406-1.992c0.012-0.063,0.022-0.119,0.033-0.174c0.464-1.219,0.974-2.424,1.451-3.636
		c1.668-4.236,2.98-8.722,3.951-13.167c0.492-2.251,0.785-4.54,0.982-6.834c0.134-1.568-0.035-3.193,0.1-4.768
		c0.111-0.603,0.249-1.327,0.465-1.72c3.637,0.246,7.208,1.545,10.711,2.427c3.854,0.97,7.827,1.757,11.813,1.541
		c2.407-0.131,6.008-0.727,8.105,0.775c0.008,0.007,0.017,0.014,0.024,0.021C71.661,14.716,71.007,15.625,70.683,16.582z"/>
	<path fill="#FFFFFF" d="M44.769,21.494c-0.021-0.097,0.286-0.733,0.3-0.772c0.232-0.625,0.46-1.251,0.686-1.878
		c0.227-0.627,0.451-1.254,0.67-1.884c0.029-0.082,0.293-0.647,0.262-0.785c-0.262-1.19-0.808-2.501-2.071-2.892
		c-0.124-0.038-1.874,5.333-1.917,5.32C43.961,18.993,44.506,20.305,44.769,21.494z"/>
	<path fill="#FFFFFF" d="M42.722,31.747c-0.025-0.082,0.275-0.757,0.282-0.779c0.22-0.629,0.433-1.261,0.646-1.892
		c0.212-0.632,0.423-1.264,0.629-1.898c0.02-0.062,0.283-0.671,0.246-0.792c-0.362-1.17-0.742-2.593-1.957-3.144
		c0.136,0.061-2.016,5.262-1.803,5.358C41.979,29.154,42.36,30.576,42.722,31.747z"/>
	<path fill="#FFFFFF" d="M39.311,41.798c0.029-0.202,0.265-0.59,0.336-0.756c0.263-0.614,0.521-1.228,0.777-1.843
		s0.511-1.23,0.762-1.849c0.084-0.207,0.265-0.535,0.299-0.772c0.241-1.637-0.605-3.136-1.953-4.031
		c0.041,0.027-1.054,2.455-1.113,2.598c-0.064,0.153-1.158,2.557-1.062,2.621C38.705,38.661,39.55,40.16,39.311,41.798z"/>
	<path fill="#FFFFFF" d="M64.809,16.565c-0.431,0.335-0.668,0.797-0.918,1.254c-0.209-0.332-0.278-0.716-0.302-1.125
		c-0.014-0.252-0.012-0.505-0.024-0.757c-0.01-0.155-0.101-0.058-0.192,0.001c-0.073,0.046-0.142,0.102-0.211,0.153
		c-0.2,0.149-0.401,0.286-0.58,0.443c-0.018,0.013-0.034,0.026-0.053,0.04c0.009-0.005,0.019-0.011,0.026-0.017
		c-0.154,0.14-0.29,0.297-0.395,0.495c-0.027,0.054-0.055,0.109-0.078,0.166c-0.338-0.523-0.522-1.14-0.72-1.728
		c0.004,0.012-0.028,0.044-0.083,0.088c0.025-0.029,0.054-0.06,0.083-0.088c-0.236,0.178-0.473,0.356-0.709,0.535
		c-0.065,0.047-0.116,0.083-0.134,0.101c-0.114,0.108-0.201,0.229-0.273,0.357c-0.064-0.231-0.107-0.47-0.168-0.674
		c-0.092-0.314-0.25-0.744-0.631-0.477c-0.44,0.309-0.896,0.604-1.182,1.069c-0.015,0.023-0.027,0.047-0.041,0.071
		c-0.306-0.439-0.546-0.948-0.637-1.458c0.006,0.026-0.074,0.095-0.186,0.178c0.055-0.057,0.112-0.114,0.173-0.166
		c-0.244,0.183-0.487,0.366-0.73,0.549c-0.041,0.027-0.07,0.049-0.085,0.062c-0.003,0.003-0.007,0.007-0.011,0.01
		c-0.001,0-0.003,0.002-0.004,0.003c0,0.001,0,0.001,0,0.001c-0.081,0.072-0.158,0.149-0.232,0.229
		c-0.135-0.188-0.274-0.375-0.402-0.568c-0.04-0.063-0.079-0.127-0.114-0.193c-0.073-0.128-0.035-0.235-0.192-0.146
		c-0.139,0.079-0.267,0.18-0.395,0.275c-0.131,0.097-0.257,0.195-0.379,0.292c-0.074,0.054-0.108,0.081-0.1,0.082
		c-0.102,0.083-0.198,0.168-0.293,0.256c-0.063-0.417-0.309-0.786-0.34-1.223c0.001,0.013-0.051,0.054-0.113,0.097
		c0.033-0.028,0.066-0.056,0.1-0.084c-0.072,0.055-0.146,0.11-0.22,0.165c-0.039,0.026-0.07,0.046-0.077,0.052
		c-0.174,0.129-0.353,0.256-0.518,0.394c-0.289,0.241-0.561,0.499-0.803,0.78c-0.116-0.458-0.146-0.939-0.208-1.407
		c0.001,0.009-0.021,0.03-0.055,0.057c0.02-0.019,0.037-0.039,0.055-0.057c-0.114,0.087-0.23,0.174-0.346,0.262
		c-0.04,0.026-0.07,0.046-0.078,0.052c-0.137,0.103-0.299,0.2-0.419,0.323c-0.239,0.244-0.457,0.506-0.676,0.768
		c-0.034,0.041-0.069,0.082-0.104,0.123c-0.014-0.504-0.027-1.009-0.04-1.513c-0.006,0.003-0.011,0.006-0.015,0.01
		c-0.135,0.087-0.267,0.179-0.397,0.273c-0.17,0.071-0.289,0.162-0.358,0.273c-0.296,0.238-0.576,0.496-0.826,0.782
		c-0.014,0.016-0.028,0.033-0.042,0.048c0-0.03,0.001-0.066,0.001-0.111c0.011-0.479,0.091-0.95,0.06-1.431
		c0.003,0.045-0.386,0.284-0.426,0.313c-0.043,0.033-0.422,0.264-0.418,0.323c0.021,0.306,0.003,0.606-0.022,0.912
		c-0.011,0.129-0.02,0.258-0.029,0.388c-0.006,0.087-0.008,0.174-0.008,0.26c-0.038,0.144-0.009,0.169,0.086,0.079
		c0.374-0.228,0.732-0.523,1.066-0.806c0.178-0.15,0.334-0.323,0.487-0.5c0,0.027,0.001,0.054,0.004,0.083
		c0.005,0.174,0.009,0.349,0.014,0.523c0.008,0.306,0.016,0.612,0.023,0.917c0.001-0.015,0.115-0.09,0.176-0.13
		c0.004-0.002,0.01-0.006,0.018-0.012c0.009-0.006,0.017-0.011,0.018-0.013c0.39-0.29,0.783-0.57,1.124-0.917
		c0.11-0.113,0.215-0.231,0.319-0.351c0.059,0.523,0.111,1.055,0.316,1.543c0.145-0.11,0.292-0.221,0.438-0.332
		c0.19-0.125,0.378-0.249,0.402-0.305c0.177-0.377,0.405-0.718,0.669-1.03c0.094,0.485,0.402,0.9,0.317,1.421
		c0.121-0.091,0.24-0.181,0.362-0.272c0.028-0.018,0.051-0.033,0.062-0.041c0.116-0.086,0.34-0.198,0.42-0.322
		c0.118-0.187,0.24-0.368,0.373-0.543c0.021-0.027,0.043-0.053,0.064-0.08c0.131,0.257,0.782,1.16,0.843,1.255
		c0.097-0.075,0.195-0.149,0.295-0.223c0.233-0.158,0.523-0.352,0.546-0.413c0.026-0.068,0.054-0.135,0.083-0.202
		c0.173,0.539,0.493,1.058,0.853,1.472c0,0,0.787-0.551,0.843-0.636c0.171-0.264,0.282-0.572,0.426-0.851
		c0.016-0.029,0.031-0.058,0.047-0.086c0.177,0.159,0.244,0.572,0.288,0.734c0.103,0.375,0.17,0.856,0.453,1.146
		c0,0,0.805-0.548,0.844-0.636c0.056-0.13,0.103-0.265,0.146-0.4c0.199,0.563,0.444,1.111,0.872,1.538
		c0.009,0.008,0.791-0.553,0.844-0.636c0.119-0.192,0.202-0.406,0.281-0.624c0.003,0.154,0.008,0.308,0.021,0.461
		c0.034,0.461,0.178,0.88,0.513,1.208c0.02,0.021,0.77-0.562,0.841-0.636c0.587-0.602,0.76-1.481,1.391-2.045
		c0.012-0.009,0.024-0.019,0.036-0.028c0.155-0.12-0.133,0.092-0.156,0.109C65.191,16.273,64.997,16.418,64.809,16.565z"/>
	<path fill="#FFFFFF" d="M55.064,51.41c-0.428,0.334-0.666,0.797-0.915,1.253c-0.211-0.333-0.279-0.715-0.303-1.126
		c-0.014-0.252-0.011-0.505-0.026-0.756c-0.01-0.157-0.1-0.059-0.19-0.001c-0.073,0.048-0.143,0.103-0.212,0.153
		c-0.2,0.15-0.4,0.285-0.578,0.444c-0.018,0.013-0.036,0.025-0.054,0.038c0.009-0.006,0.018-0.011,0.026-0.014
		c-0.153,0.137-0.29,0.295-0.394,0.491c-0.029,0.055-0.055,0.111-0.079,0.166c-0.338-0.521-0.522-1.14-0.72-1.727
		c0.004,0.012-0.029,0.043-0.084,0.087c0.027-0.029,0.055-0.059,0.084-0.087c-0.235,0.179-0.472,0.356-0.708,0.533
		c-0.067,0.048-0.117,0.086-0.135,0.102c-0.113,0.11-0.202,0.229-0.274,0.356c-0.063-0.23-0.108-0.468-0.167-0.674
		c-0.091-0.314-0.251-0.742-0.631-0.476c-0.44,0.308-0.897,0.604-1.181,1.069c-0.015,0.023-0.028,0.047-0.041,0.07
		c-0.305-0.44-0.547-0.948-0.637-1.457c0.004,0.024-0.074,0.095-0.186,0.177c0.055-0.056,0.112-0.112,0.172-0.166
		c-0.243,0.183-0.487,0.365-0.729,0.548c-0.041,0.028-0.071,0.05-0.086,0.063c-0.003,0.003-0.005,0.008-0.009,0.01
		c-0.001,0.001-0.004,0.001-0.005,0.004l0,0c-0.082,0.072-0.159,0.149-0.231,0.229c-0.136-0.189-0.275-0.375-0.403-0.567
		c-0.04-0.063-0.078-0.127-0.113-0.192c-0.073-0.131-0.035-0.235-0.194-0.146c-0.139,0.076-0.267,0.179-0.394,0.274
		c-0.131,0.096-0.256,0.194-0.378,0.292c-0.075,0.055-0.108,0.081-0.101,0.08c-0.101,0.085-0.198,0.17-0.292,0.257
		c-0.063-0.416-0.308-0.786-0.339-1.224c0.001,0.015-0.05,0.056-0.113,0.098c0.033-0.028,0.065-0.058,0.1-0.084
		c-0.074,0.055-0.147,0.109-0.22,0.163c-0.041,0.027-0.072,0.047-0.079,0.053c-0.173,0.131-0.35,0.258-0.516,0.396
		c-0.289,0.24-0.56,0.497-0.802,0.78c-0.117-0.458-0.147-0.941-0.208-1.407c0.001,0.007-0.021,0.029-0.054,0.056
		c0.019-0.018,0.037-0.037,0.054-0.056c-0.116,0.088-0.232,0.175-0.347,0.262c-0.04,0.025-0.069,0.045-0.078,0.053
		c-0.136,0.101-0.298,0.199-0.418,0.321c-0.239,0.242-0.457,0.506-0.675,0.768c-0.035,0.042-0.07,0.081-0.105,0.124
		c-0.013-0.504-0.027-1.011-0.041-1.516c-0.004,0.004-0.011,0.009-0.015,0.012c-0.134,0.088-0.266,0.18-0.396,0.271
		c-0.169,0.071-0.289,0.164-0.358,0.273c-0.296,0.238-0.576,0.496-0.824,0.784c-0.015,0.017-0.028,0.031-0.043,0.047
		c0-0.029,0.002-0.067,0.003-0.109c0.011-0.481,0.089-0.951,0.057-1.432c0.003,0.045-0.386,0.285-0.424,0.314
		c-0.044,0.033-0.423,0.265-0.418,0.322c0.019,0.306,0.002,0.606-0.023,0.91c-0.011,0.131-0.021,0.259-0.03,0.39
		c-0.005,0.088-0.008,0.174-0.009,0.261c-0.036,0.143-0.007,0.171,0.086,0.08c0.374-0.229,0.731-0.524,1.067-0.808
		c0.178-0.148,0.333-0.323,0.486-0.501c-0.001,0.028,0,0.056,0.005,0.083c0.004,0.175,0.009,0.349,0.013,0.523
		c0.008,0.307,0.017,0.611,0.025,0.918c-0.001-0.015,0.113-0.092,0.174-0.13c0.004,0,0.01-0.007,0.019-0.012
		c0.009-0.006,0.016-0.011,0.019-0.014c0.388-0.289,0.782-0.569,1.123-0.916c0.111-0.111,0.216-0.23,0.32-0.35
		c0.058,0.523,0.11,1.053,0.314,1.543c0.146-0.11,0.293-0.221,0.44-0.331c0.191-0.125,0.377-0.248,0.403-0.306
		c0.175-0.378,0.404-0.717,0.669-1.029c0.091,0.484,0.401,0.899,0.315,1.421c0.12-0.091,0.241-0.181,0.361-0.273
		c0.029-0.017,0.052-0.03,0.063-0.041c0.115-0.085,0.339-0.196,0.418-0.321c0.119-0.186,0.241-0.368,0.374-0.544
		c0.021-0.025,0.044-0.053,0.065-0.078c0.131,0.256,0.781,1.16,0.841,1.254c0.099-0.073,0.197-0.147,0.296-0.224
		c0.234-0.157,0.525-0.351,0.547-0.412c0.024-0.069,0.053-0.136,0.082-0.202c0.172,0.539,0.493,1.059,0.852,1.473
		c0,0,0.789-0.551,0.844-0.637c0.171-0.264,0.282-0.57,0.426-0.85c0.015-0.03,0.03-0.06,0.045-0.088
		c0.178,0.159,0.245,0.572,0.289,0.737c0.103,0.373,0.17,0.854,0.452,1.146c0.001,0,0.805-0.551,0.843-0.638
		c0.058-0.129,0.104-0.265,0.146-0.399c0.201,0.563,0.443,1.109,0.872,1.537c0.009,0.011,0.791-0.552,0.843-0.635
		c0.12-0.192,0.204-0.408,0.282-0.626c0.005,0.155,0.01,0.31,0.021,0.462c0.035,0.463,0.179,0.881,0.512,1.21
		c0.021,0.019,0.772-0.563,0.844-0.636c0.585-0.602,0.758-1.482,1.389-2.047c0.012-0.008,0.025-0.019,0.037-0.027
		c0.153-0.119-0.133,0.091-0.156,0.107C55.447,51.116,55.256,51.261,55.064,51.41z"/>
	<path fill="#FFFFFF" d="M55.686,46.265c-0.43,0.334-0.666,0.797-0.916,1.255c-0.211-0.332-0.279-0.717-0.302-1.126
		c-0.015-0.251-0.013-0.504-0.027-0.758c-0.008-0.154-0.099-0.057-0.189,0.002c-0.074,0.048-0.143,0.102-0.213,0.153
		c-0.199,0.15-0.399,0.285-0.579,0.441c-0.018,0.014-0.034,0.027-0.052,0.04c0.008-0.005,0.018-0.011,0.026-0.016
		c-0.155,0.14-0.291,0.296-0.395,0.494c-0.028,0.055-0.055,0.108-0.079,0.165c-0.337-0.523-0.522-1.139-0.719-1.727
		c0.002,0.012-0.029,0.041-0.084,0.088c0.025-0.029,0.054-0.062,0.084-0.088c-0.236,0.178-0.473,0.354-0.709,0.534
		c-0.066,0.047-0.116,0.083-0.135,0.102c-0.113,0.109-0.201,0.229-0.273,0.356c-0.064-0.23-0.108-0.471-0.167-0.675
		c-0.092-0.313-0.25-0.743-0.631-0.478c-0.44,0.311-0.897,0.606-1.182,1.069c-0.014,0.023-0.027,0.05-0.041,0.073
		c-0.305-0.44-0.547-0.948-0.637-1.46c0.005,0.027-0.074,0.098-0.185,0.179c0.055-0.058,0.112-0.114,0.172-0.165
		c-0.243,0.183-0.487,0.365-0.73,0.548c-0.041,0.028-0.071,0.05-0.085,0.063c-0.003,0.004-0.007,0.006-0.011,0.009
		c-0.001,0.002-0.002,0.002-0.003,0.002v0.003c-0.082,0.073-0.159,0.147-0.233,0.229c-0.135-0.188-0.275-0.375-0.402-0.569
		c-0.04-0.063-0.079-0.128-0.114-0.192c-0.073-0.128-0.035-0.236-0.193-0.146c-0.138,0.079-0.266,0.179-0.394,0.275
		c-0.131,0.098-0.258,0.192-0.378,0.293c-0.075,0.052-0.11,0.08-0.101,0.081c-0.101,0.084-0.198,0.168-0.292,0.256
		c-0.063-0.415-0.309-0.785-0.339-1.223c0.001,0.012-0.052,0.053-0.114,0.097c0.033-0.029,0.066-0.057,0.1-0.084
		c-0.073,0.055-0.146,0.109-0.22,0.164c-0.039,0.027-0.071,0.047-0.079,0.052c-0.172,0.129-0.35,0.255-0.517,0.396
		c-0.288,0.24-0.56,0.497-0.802,0.777c-0.116-0.457-0.146-0.938-0.208-1.406c0.001,0.01-0.021,0.031-0.053,0.059
		c0.017-0.02,0.035-0.04,0.053-0.059c-0.116,0.088-0.231,0.175-0.347,0.262c-0.04,0.027-0.07,0.047-0.078,0.053
		c-0.136,0.104-0.298,0.201-0.418,0.323c-0.24,0.242-0.457,0.504-0.676,0.769c-0.034,0.039-0.07,0.081-0.104,0.12
		c-0.014-0.504-0.027-1.008-0.04-1.512c-0.006,0.003-0.011,0.006-0.016,0.011c-0.135,0.087-0.266,0.179-0.396,0.272
		c-0.169,0.071-0.289,0.161-0.357,0.273c-0.297,0.237-0.577,0.496-0.826,0.781c-0.014,0.016-0.028,0.034-0.042,0.05
		c0.001-0.032,0.001-0.067,0.002-0.112c0.011-0.479,0.09-0.948,0.059-1.431c0.003,0.047-0.386,0.283-0.425,0.313
		c-0.043,0.033-0.422,0.265-0.418,0.324c0.021,0.304,0.003,0.604-0.022,0.911c-0.011,0.128-0.02,0.259-0.029,0.39
		c-0.006,0.085-0.008,0.172-0.009,0.261c-0.038,0.142-0.008,0.167,0.086,0.076c0.375-0.228,0.732-0.523,1.067-0.805
		c0.178-0.151,0.334-0.323,0.486-0.5c0,0.027,0.002,0.055,0.005,0.083c0.004,0.174,0.009,0.349,0.014,0.523
		c0.008,0.305,0.016,0.611,0.024,0.915c0-0.015,0.114-0.089,0.175-0.128c0.004-0.003,0.01-0.006,0.019-0.012
		c0.009-0.007,0.016-0.011,0.018-0.014c0.389-0.288,0.783-0.568,1.124-0.915c0.11-0.114,0.215-0.23,0.319-0.353
		c0.059,0.523,0.111,1.056,0.316,1.545c0.146-0.111,0.292-0.222,0.439-0.332c0.191-0.125,0.378-0.249,0.403-0.304
		c0.177-0.378,0.404-0.72,0.668-1.031c0.093,0.486,0.402,0.899,0.317,1.423c0.12-0.091,0.241-0.184,0.361-0.273
		c0.029-0.02,0.052-0.034,0.063-0.041c0.116-0.088,0.34-0.2,0.419-0.322c0.119-0.188,0.241-0.367,0.374-0.543
		c0.021-0.028,0.042-0.056,0.065-0.081c0.129,0.257,0.78,1.16,0.841,1.256c0.098-0.075,0.197-0.149,0.294-0.223
		c0.235-0.158,0.525-0.352,0.548-0.412c0.026-0.069,0.053-0.136,0.083-0.203c0.172,0.539,0.493,1.057,0.852,1.472
		c0,0,0.788-0.553,0.842-0.636c0.172-0.264,0.283-0.573,0.426-0.852c0.016-0.029,0.032-0.058,0.047-0.086
		c0.176,0.159,0.244,0.572,0.289,0.734c0.101,0.377,0.169,0.856,0.452,1.146c0,0,0.805-0.548,0.844-0.636
		c0.057-0.131,0.103-0.264,0.146-0.401c0.199,0.564,0.444,1.111,0.872,1.54c0.008,0.007,0.79-0.555,0.842-0.639
		c0.121-0.189,0.203-0.404,0.283-0.622c0.004,0.155,0.01,0.307,0.021,0.462c0.034,0.459,0.178,0.881,0.513,1.207
		c0.02,0.021,0.771-0.562,0.842-0.635c0.585-0.603,0.758-1.483,1.39-2.046c0.012-0.008,0.024-0.018,0.036-0.026
		c0.153-0.119-0.133,0.09-0.155,0.107C56.069,45.974,55.876,46.117,55.686,46.265z"/>
	<path fill="#FFFFFF" d="M59.688,40.633c-0.429,0.335-0.666,0.798-0.915,1.255c-0.211-0.332-0.279-0.717-0.303-1.125
		c-0.015-0.253-0.012-0.506-0.026-0.758c-0.009-0.156-0.099-0.059-0.191,0c-0.072,0.047-0.141,0.103-0.211,0.154
		c-0.201,0.149-0.4,0.285-0.579,0.441c-0.018,0.014-0.034,0.027-0.052,0.041c0.008-0.006,0.017-0.012,0.025-0.017
		c-0.154,0.14-0.291,0.296-0.394,0.494c-0.028,0.054-0.055,0.109-0.08,0.166c-0.337-0.524-0.521-1.14-0.719-1.728
		c0.003,0.011-0.029,0.042-0.085,0.088c0.027-0.032,0.055-0.062,0.085-0.088c-0.236,0.178-0.473,0.354-0.708,0.534
		c-0.067,0.047-0.116,0.083-0.136,0.102c-0.112,0.107-0.2,0.229-0.273,0.356c-0.063-0.231-0.108-0.471-0.168-0.674
		c-0.091-0.314-0.25-0.744-0.629-0.478c-0.442,0.31-0.897,0.604-1.183,1.068c-0.016,0.023-0.027,0.049-0.041,0.072
		c-0.305-0.439-0.548-0.948-0.637-1.459c0.006,0.027-0.073,0.065-0.015,0.013c-0.243,0.183-0.486,0.366-0.729,0.549
		c-0.04,0.028-0.07,0.05-0.086,0.063c-0.004,0.003-0.006,0.006-0.01,0.009c-0.001,0.001-0.003,0.003-0.003,0.004v0.001
		c-0.083,0.07-0.161,0.147-0.233,0.229c-0.136-0.188-0.275-0.373-0.402-0.567c-0.041-0.063-0.079-0.127-0.114-0.192
		c-0.073-0.13-0.034-0.236-0.192-0.146c-0.14,0.079-0.268,0.18-0.395,0.275c-0.131,0.097-0.257,0.194-0.379,0.292
		c-0.074,0.055-0.108,0.081-0.1,0.081c-0.101,0.084-0.199,0.169-0.293,0.258c-0.063-0.417-0.308-0.786-0.338-1.224
		c0.001,0.013-0.051,0.053-0.114,0.097c0.033-0.029,0.066-0.057,0.1-0.085c-0.072,0.056-0.147,0.11-0.22,0.165
		c-0.04,0.026-0.072,0.047-0.079,0.053c-0.174,0.129-0.351,0.256-0.517,0.395c-0.289,0.24-0.56,0.498-0.802,0.778
		c-0.116-0.458-0.147-0.938-0.208-1.406c0.002,0.009-0.021,0.03-0.054,0.058c0.019-0.02,0.037-0.039,0.054-0.058
		c-0.116,0.088-0.23,0.174-0.347,0.262c-0.039,0.026-0.069,0.046-0.077,0.052c-0.136,0.103-0.298,0.2-0.418,0.323
		c-0.24,0.243-0.458,0.505-0.676,0.769c-0.035,0.039-0.07,0.081-0.105,0.121c-0.013-0.504-0.026-1.009-0.041-1.513
		c-0.004,0.004-0.011,0.007-0.015,0.01c-0.133,0.088-0.265,0.18-0.396,0.273c-0.169,0.07-0.29,0.162-0.359,0.273
		c-0.296,0.237-0.575,0.495-0.824,0.781c-0.014,0.017-0.028,0.033-0.042,0.049c0-0.03,0.001-0.066,0.002-0.11
		c0.011-0.479,0.09-0.95,0.057-1.432c0.004,0.046-0.386,0.285-0.424,0.314c-0.044,0.032-0.422,0.264-0.418,0.322
		c0.019,0.306,0.002,0.606-0.023,0.912c-0.011,0.129-0.021,0.259-0.029,0.389c-0.006,0.086-0.009,0.175-0.01,0.261
		c-0.036,0.143-0.007,0.169,0.086,0.078c0.376-0.229,0.732-0.524,1.068-0.806c0.178-0.15,0.333-0.323,0.486-0.5
		c0,0.026,0,0.054,0.005,0.082c0.005,0.176,0.009,0.35,0.014,0.524c0.008,0.305,0.016,0.611,0.024,0.916
		c-0.001-0.016,0.114-0.09,0.174-0.128c0.004-0.003,0.011-0.008,0.018-0.013c0.011-0.007,0.017-0.011,0.019-0.013
		c0.388-0.289,0.783-0.57,1.124-0.917c0.11-0.113,0.215-0.23,0.319-0.351c0.059,0.522,0.11,1.055,0.314,1.545
		c0.146-0.112,0.294-0.221,0.44-0.333c0.19-0.125,0.377-0.249,0.403-0.305c0.176-0.377,0.405-0.718,0.669-1.03
		c0.092,0.485,0.402,0.899,0.316,1.423c0.12-0.093,0.241-0.183,0.361-0.273c0.029-0.02,0.053-0.032,0.063-0.041
		c0.115-0.088,0.34-0.198,0.418-0.323c0.119-0.186,0.241-0.367,0.375-0.543c0.021-0.026,0.043-0.054,0.065-0.079
		c0.13,0.256,0.781,1.159,0.84,1.254c0.099-0.074,0.197-0.148,0.296-0.222c0.233-0.158,0.524-0.353,0.548-0.414
		c0.023-0.067,0.053-0.135,0.082-0.202c0.172,0.541,0.493,1.059,0.851,1.473c0.002,0,0.789-0.552,0.844-0.635
		c0.172-0.266,0.283-0.573,0.427-0.852c0.016-0.028,0.029-0.058,0.047-0.086c0.176,0.159,0.243,0.572,0.287,0.734
		c0.103,0.376,0.171,0.856,0.454,1.146c0,0,0.804-0.549,0.842-0.636c0.059-0.132,0.104-0.266,0.146-0.401
		c0.201,0.563,0.444,1.111,0.872,1.537c0.01,0.01,0.791-0.553,0.844-0.635c0.12-0.192,0.203-0.406,0.281-0.624
		c0.005,0.153,0.01,0.308,0.022,0.462c0.034,0.46,0.178,0.88,0.511,1.207c0.021,0.021,0.771-0.561,0.844-0.635
		c0.584-0.603,0.758-1.482,1.39-2.045c0.012-0.009,0.023-0.019,0.035-0.028c0.154-0.12-0.132,0.092-0.155,0.108
		C60.071,40.341,59.88,40.485,59.688,40.633z"/>
	<path fill="#FFFFFF" d="M62.015,35.626c-0.43,0.336-0.667,0.798-0.917,1.255c-0.21-0.331-0.279-0.716-0.302-1.126
		c-0.015-0.252-0.011-0.504-0.025-0.758c-0.009-0.155-0.1-0.057-0.192,0.001c-0.072,0.047-0.143,0.102-0.211,0.154
		c-0.2,0.148-0.4,0.284-0.578,0.442c-0.018,0.014-0.035,0.027-0.055,0.04c0.011-0.006,0.02-0.011,0.027-0.017
		c-0.153,0.14-0.29,0.297-0.395,0.495c-0.028,0.054-0.054,0.108-0.079,0.164c-0.336-0.521-0.521-1.139-0.719-1.727
		c0.004,0.011-0.029,0.043-0.084,0.087c0.026-0.03,0.055-0.06,0.084-0.087c-0.236,0.178-0.474,0.355-0.709,0.535
		c-0.066,0.046-0.117,0.083-0.134,0.101c-0.114,0.109-0.201,0.229-0.274,0.358c-0.063-0.232-0.107-0.47-0.167-0.675
		c-0.091-0.314-0.251-0.744-0.632-0.477c-0.44,0.31-0.896,0.604-1.182,1.07c-0.014,0.022-0.025,0.047-0.041,0.07
		c-0.304-0.44-0.546-0.947-0.636-1.458c0.005,0.027-0.075,0.096-0.186,0.178c0.056-0.058,0.111-0.114,0.172-0.166
		c-0.243,0.183-0.487,0.365-0.73,0.549c-0.04,0.028-0.069,0.049-0.084,0.062c-0.004,0.003-0.007,0.006-0.01,0.009
		c-0.002,0.001-0.004,0.002-0.006,0.003v0.001c-0.081,0.072-0.158,0.149-0.23,0.229c-0.137-0.188-0.275-0.374-0.404-0.568
		c-0.04-0.063-0.077-0.126-0.112-0.192c-0.073-0.129-0.036-0.235-0.193-0.146c-0.139,0.08-0.268,0.18-0.395,0.275
		c-0.132,0.098-0.257,0.195-0.378,0.292c-0.076,0.055-0.108,0.081-0.102,0.082c-0.101,0.084-0.198,0.169-0.292,0.256
		c-0.063-0.417-0.309-0.786-0.34-1.222c0.001,0.013-0.05,0.053-0.113,0.097c0.034-0.029,0.065-0.057,0.101-0.085
		c-0.074,0.055-0.147,0.11-0.221,0.165c-0.04,0.026-0.071,0.046-0.078,0.052c-0.174,0.129-0.351,0.256-0.517,0.395
		c-0.289,0.241-0.56,0.499-0.802,0.78c-0.118-0.458-0.148-0.939-0.208-1.407c0.001,0.009-0.021,0.03-0.054,0.057
		c0.019-0.019,0.036-0.039,0.054-0.057c-0.116,0.087-0.232,0.175-0.348,0.262c-0.04,0.025-0.068,0.045-0.078,0.052
		c-0.136,0.103-0.297,0.2-0.418,0.322c-0.238,0.244-0.457,0.506-0.676,0.768c-0.034,0.042-0.069,0.082-0.104,0.123
		c-0.013-0.505-0.026-1.009-0.041-1.514c-0.005,0.003-0.011,0.007-0.016,0.01c-0.134,0.088-0.266,0.179-0.396,0.273
		c-0.169,0.071-0.289,0.162-0.358,0.273c-0.296,0.238-0.576,0.496-0.824,0.783c-0.014,0.016-0.028,0.033-0.043,0.048
		c0.002-0.03,0.002-0.066,0.003-0.11c0.011-0.48,0.089-0.95,0.058-1.431c0.003,0.045-0.386,0.284-0.424,0.313
		c-0.044,0.033-0.423,0.264-0.418,0.322c0.019,0.306,0.002,0.606-0.022,0.913c-0.011,0.129-0.021,0.259-0.031,0.388
		c-0.004,0.087-0.008,0.174-0.008,0.261c-0.036,0.143-0.007,0.169,0.086,0.079c0.375-0.229,0.732-0.524,1.068-0.806
		c0.178-0.15,0.333-0.323,0.485-0.5c0,0.027,0.001,0.054,0.005,0.082c0.004,0.175,0.01,0.35,0.013,0.524
		c0.01,0.306,0.018,0.611,0.025,0.917c-0.001-0.016,0.113-0.091,0.174-0.13c0.003-0.002,0.01-0.006,0.018-0.012
		c0.01-0.007,0.017-0.011,0.019-0.013c0.388-0.29,0.783-0.57,1.122-0.917c0.112-0.113,0.217-0.23,0.32-0.351
		c0.058,0.523,0.11,1.054,0.315,1.543c0.147-0.11,0.293-0.221,0.44-0.332c0.191-0.124,0.377-0.248,0.404-0.304
		c0.176-0.377,0.403-0.718,0.668-1.031c0.092,0.486,0.401,0.9,0.316,1.422c0.12-0.091,0.24-0.183,0.361-0.273
		c0.028-0.017,0.053-0.032,0.063-0.041c0.115-0.086,0.341-0.197,0.419-0.322c0.119-0.187,0.24-0.367,0.374-0.543
		c0.02-0.027,0.044-0.054,0.064-0.08c0.131,0.256,0.781,1.159,0.842,1.255c0.099-0.074,0.196-0.148,0.296-0.224
		c0.233-0.157,0.524-0.351,0.547-0.413c0.024-0.067,0.053-0.134,0.083-0.201c0.171,0.54,0.491,1.057,0.851,1.472
		c0.001,0,0.789-0.552,0.844-0.637c0.171-0.264,0.283-0.571,0.427-0.851c0.015-0.029,0.029-0.058,0.045-0.086
		c0.178,0.159,0.245,0.571,0.289,0.734c0.102,0.375,0.171,0.856,0.452,1.146c0.001,0,0.805-0.549,0.844-0.636
		c0.058-0.13,0.104-0.266,0.146-0.401c0.201,0.563,0.444,1.111,0.872,1.537c0.009,0.01,0.791-0.552,0.844-0.635
		c0.12-0.191,0.203-0.406,0.281-0.623c0.005,0.153,0.01,0.307,0.021,0.461c0.036,0.461,0.178,0.88,0.513,1.208
		c0.02,0.02,0.771-0.562,0.843-0.636c0.585-0.602,0.759-1.482,1.389-2.044c0.014-0.01,0.025-0.02,0.037-0.029
		c0.154-0.121-0.133,0.091-0.155,0.108C62.396,35.334,62.204,35.479,62.015,35.626z"/>
	<path fill="#FFFFFF" d="M62.395,28.66c-0.429,0.335-0.666,0.798-0.916,1.254c-0.211-0.332-0.278-0.715-0.302-1.125
		c-0.014-0.252-0.012-0.505-0.027-0.757c-0.008-0.156-0.099-0.058-0.189,0.001c-0.073,0.046-0.143,0.102-0.213,0.154
		c-0.198,0.148-0.4,0.285-0.577,0.442c-0.019,0.013-0.037,0.026-0.054,0.04c0.009-0.006,0.018-0.011,0.026-0.016
		c-0.154,0.139-0.29,0.296-0.395,0.494c-0.027,0.054-0.055,0.11-0.078,0.166c-0.338-0.522-0.523-1.139-0.72-1.727
		c0.003,0.011-0.03,0.043-0.084,0.087c0.026-0.03,0.055-0.06,0.084-0.087c-0.236,0.178-0.473,0.356-0.709,0.534
		c-0.067,0.047-0.116,0.084-0.135,0.101c-0.113,0.109-0.2,0.229-0.273,0.357c-0.063-0.232-0.107-0.47-0.168-0.674
		c-0.091-0.314-0.249-0.744-0.63-0.477c-0.44,0.31-0.896,0.605-1.183,1.069c-0.013,0.023-0.027,0.047-0.04,0.071
		c-0.306-0.439-0.547-0.948-0.637-1.458c0.006,0.026-0.074,0.095-0.187,0.178c0.055-0.058,0.112-0.113,0.174-0.166
		c-0.244,0.183-0.487,0.366-0.731,0.549c-0.04,0.027-0.07,0.049-0.084,0.062c-0.004,0.003-0.007,0.007-0.011,0.009
		c-0.001,0.001-0.002,0.002-0.005,0.004c0,0,0.001,0,0.001,0c-0.082,0.072-0.159,0.148-0.233,0.229
		c-0.135-0.189-0.273-0.375-0.401-0.568c-0.041-0.063-0.079-0.127-0.115-0.192c-0.072-0.129-0.034-0.235-0.191-0.146
		c-0.14,0.078-0.267,0.18-0.394,0.275c-0.132,0.098-0.258,0.194-0.378,0.292c-0.076,0.054-0.11,0.082-0.102,0.082
		c-0.101,0.083-0.199,0.168-0.295,0.256c-0.06-0.416-0.308-0.786-0.338-1.223c0.001,0.013-0.051,0.053-0.113,0.097
		c0.033-0.028,0.066-0.056,0.1-0.084c-0.073,0.055-0.146,0.11-0.22,0.165c-0.039,0.026-0.07,0.047-0.079,0.052
		c-0.172,0.129-0.35,0.256-0.516,0.395c-0.29,0.24-0.56,0.498-0.803,0.779c-0.116-0.458-0.148-0.939-0.207-1.407
		c0.001,0.009-0.021,0.03-0.055,0.057c0.018-0.019,0.036-0.039,0.055-0.057c-0.116,0.087-0.231,0.174-0.347,0.262
		c-0.04,0.026-0.07,0.045-0.078,0.052c-0.136,0.102-0.298,0.199-0.418,0.322c-0.24,0.244-0.457,0.506-0.676,0.768
		c-0.034,0.042-0.07,0.082-0.105,0.123c-0.013-0.504-0.026-1.008-0.039-1.513c-0.006,0.003-0.011,0.007-0.017,0.01
		c-0.133,0.088-0.265,0.179-0.396,0.272c-0.169,0.071-0.29,0.163-0.357,0.273c-0.296,0.238-0.577,0.496-0.826,0.782
		c-0.014,0.017-0.028,0.033-0.042,0.049c0-0.031,0.001-0.067,0.001-0.111c0.011-0.479,0.09-0.95,0.059-1.431
		c0.003,0.046-0.387,0.285-0.425,0.314c-0.043,0.033-0.422,0.264-0.418,0.322c0.021,0.306,0.003,0.607-0.022,0.913
		c-0.011,0.129-0.021,0.259-0.029,0.388c-0.006,0.087-0.008,0.174-0.009,0.261c-0.038,0.143-0.008,0.169,0.085,0.079
		c0.375-0.229,0.732-0.524,1.068-0.806c0.178-0.15,0.333-0.324,0.486-0.501c0,0.027,0.002,0.054,0.005,0.083
		c0.004,0.174,0.01,0.349,0.014,0.524c0.008,0.305,0.016,0.61,0.024,0.916c-0.001-0.015,0.114-0.09,0.175-0.13
		c0.004-0.001,0.01-0.005,0.019-0.012c0.009-0.006,0.017-0.011,0.018-0.013c0.389-0.289,0.783-0.57,1.124-0.917
		c0.11-0.112,0.215-0.23,0.319-0.351c0.06,0.524,0.111,1.055,0.315,1.544c0.146-0.111,0.293-0.221,0.44-0.332
		c0.191-0.125,0.377-0.249,0.402-0.304c0.177-0.377,0.405-0.718,0.669-1.031c0.093,0.485,0.402,0.9,0.317,1.421
		c0.121-0.091,0.241-0.181,0.36-0.271c0.029-0.018,0.054-0.033,0.063-0.042c0.115-0.086,0.34-0.197,0.418-0.322
		c0.118-0.186,0.242-0.367,0.375-0.543c0.021-0.027,0.043-0.053,0.065-0.081c0.13,0.258,0.779,1.161,0.839,1.256
		c0.1-0.074,0.197-0.148,0.297-0.223c0.233-0.157,0.525-0.351,0.547-0.413c0.025-0.067,0.054-0.135,0.082-0.202
		c0.173,0.54,0.493,1.058,0.853,1.472c0.001,0,0.788-0.551,0.843-0.636c0.173-0.264,0.282-0.571,0.427-0.85
		c0.016-0.03,0.031-0.058,0.046-0.086c0.178,0.159,0.244,0.572,0.288,0.735c0.103,0.375,0.17,0.855,0.454,1.146
		c0,0,0.804-0.549,0.843-0.636c0.057-0.13,0.103-0.264,0.146-0.4c0.199,0.563,0.441,1.11,0.872,1.537
		c0.007,0.009,0.79-0.553,0.841-0.636c0.121-0.192,0.204-0.407,0.284-0.624c0.004,0.153,0.008,0.308,0.021,0.461
		c0.033,0.461,0.177,0.881,0.512,1.209c0.021,0.02,0.771-0.562,0.842-0.636c0.586-0.601,0.758-1.481,1.39-2.045
		c0.013-0.008,0.024-0.019,0.037-0.028c0.152-0.12-0.134,0.092-0.156,0.108C62.778,28.367,62.585,28.512,62.395,28.66z"/>
	<path fill="#FFFFFF" d="M65.155,22.076c-0.431,0.335-0.667,0.797-0.918,1.253c-0.209-0.331-0.278-0.715-0.302-1.125
		c-0.014-0.253-0.012-0.505-0.024-0.757c-0.01-0.156-0.101-0.059-0.192,0c-0.073,0.047-0.142,0.102-0.211,0.153
		c-0.2,0.149-0.401,0.286-0.58,0.443c-0.018,0.013-0.034,0.026-0.053,0.039c0.009-0.005,0.019-0.01,0.026-0.016
		c-0.154,0.14-0.29,0.296-0.395,0.494c-0.027,0.054-0.055,0.109-0.078,0.165c-0.338-0.522-0.522-1.14-0.72-1.727
		c0.004,0.012-0.028,0.044-0.083,0.088c0.025-0.03,0.054-0.06,0.083-0.088c-0.236,0.178-0.473,0.356-0.709,0.534
		c-0.065,0.047-0.116,0.084-0.134,0.102c-0.114,0.108-0.201,0.229-0.273,0.356c-0.064-0.231-0.107-0.469-0.168-0.674
		c-0.092-0.314-0.25-0.744-0.631-0.477c-0.44,0.309-0.896,0.604-1.182,1.069c-0.015,0.023-0.027,0.047-0.041,0.07
		c-0.306-0.439-0.546-0.948-0.637-1.458c0.006,0.027-0.074,0.096-0.186,0.178c0.055-0.057,0.112-0.113,0.173-0.166
		c-0.244,0.184-0.487,0.366-0.73,0.549c-0.041,0.028-0.07,0.05-0.084,0.061c-0.004,0.004-0.008,0.007-0.012,0.011
		c-0.001,0-0.003,0.001-0.004,0.002c0,0,0,0,0,0c-0.081,0.073-0.158,0.149-0.232,0.229c-0.135-0.188-0.274-0.374-0.402-0.567
		c-0.04-0.063-0.079-0.127-0.114-0.192c-0.073-0.128-0.034-0.236-0.192-0.146c-0.139,0.079-0.267,0.18-0.395,0.276
		c-0.131,0.097-0.257,0.194-0.379,0.292c-0.074,0.053-0.108,0.082-0.1,0.082c-0.102,0.083-0.198,0.168-0.293,0.255
		c-0.063-0.416-0.309-0.785-0.34-1.223c0.001,0.013-0.051,0.054-0.113,0.097c0.033-0.028,0.066-0.057,0.1-0.084
		c-0.072,0.055-0.146,0.109-0.22,0.165c-0.039,0.026-0.07,0.046-0.077,0.052c-0.173,0.129-0.353,0.255-0.518,0.394
		c-0.289,0.241-0.561,0.499-0.803,0.78c-0.116-0.458-0.146-0.938-0.207-1.406c0,0.009-0.021,0.029-0.056,0.057
		c0.02-0.02,0.037-0.039,0.056-0.057c-0.115,0.087-0.231,0.174-0.347,0.261c-0.04,0.026-0.07,0.045-0.078,0.052
		c-0.137,0.103-0.299,0.2-0.419,0.323c-0.239,0.244-0.457,0.506-0.676,0.768c-0.034,0.041-0.069,0.082-0.104,0.123
		c-0.014-0.505-0.027-1.009-0.04-1.513c-0.006,0.003-0.011,0.007-0.015,0.01c-0.135,0.087-0.267,0.179-0.397,0.273
		c-0.169,0.071-0.288,0.162-0.357,0.273c-0.296,0.238-0.576,0.496-0.826,0.783c-0.014,0.016-0.028,0.032-0.042,0.048
		c0-0.031,0.001-0.067,0.002-0.111c0.011-0.479,0.09-0.95,0.059-1.431c0.003,0.045-0.386,0.284-0.426,0.313
		c-0.043,0.032-0.422,0.264-0.418,0.322c0.021,0.305,0.003,0.606-0.022,0.912c-0.011,0.129-0.02,0.259-0.029,0.389
		c-0.006,0.087-0.008,0.173-0.008,0.26c-0.038,0.144-0.009,0.169,0.086,0.079c0.374-0.228,0.732-0.523,1.066-0.805
		c0.178-0.15,0.334-0.324,0.487-0.501c0,0.027,0.001,0.054,0.004,0.083c0.005,0.175,0.009,0.349,0.015,0.523
		c0.007,0.306,0.016,0.611,0.023,0.917c0.001-0.015,0.114-0.09,0.176-0.129c0.004-0.002,0.009-0.007,0.018-0.012
		c0.01-0.006,0.017-0.011,0.018-0.012c0.39-0.29,0.783-0.57,1.124-0.917c0.11-0.114,0.215-0.231,0.319-0.351
		c0.06,0.524,0.111,1.055,0.316,1.544c0.145-0.11,0.292-0.221,0.438-0.332c0.191-0.125,0.378-0.249,0.402-0.304
		c0.177-0.378,0.405-0.719,0.67-1.03c0.093,0.484,0.401,0.9,0.317,1.421c0.12-0.091,0.239-0.182,0.361-0.273
		c0.028-0.018,0.051-0.032,0.062-0.041c0.116-0.087,0.34-0.198,0.42-0.323c0.118-0.186,0.24-0.368,0.373-0.543
		c0.021-0.027,0.043-0.054,0.064-0.08c0.131,0.257,0.782,1.16,0.843,1.255c0.097-0.074,0.195-0.148,0.295-0.222
		c0.233-0.159,0.523-0.352,0.546-0.413c0.026-0.069,0.054-0.136,0.083-0.202c0.173,0.538,0.493,1.057,0.853,1.471
		c0,0.001,0.787-0.551,0.843-0.635c0.171-0.265,0.282-0.572,0.426-0.851c0.016-0.029,0.031-0.058,0.047-0.087
		c0.177,0.16,0.244,0.573,0.288,0.735c0.103,0.375,0.17,0.857,0.453,1.146c0,0.001,0.805-0.548,0.844-0.636
		c0.056-0.13,0.103-0.265,0.146-0.4c0.199,0.563,0.444,1.111,0.872,1.538c0.009,0.008,0.791-0.553,0.844-0.636
		c0.119-0.192,0.202-0.407,0.281-0.624c0.003,0.155,0.008,0.309,0.021,0.462c0.034,0.46,0.178,0.879,0.513,1.208
		c0.02,0.02,0.77-0.563,0.841-0.636c0.587-0.601,0.76-1.481,1.391-2.044c0.012-0.01,0.024-0.019,0.036-0.029
		c0.155-0.119-0.133,0.092-0.156,0.109C65.538,21.784,65.344,21.928,65.155,22.076z"/>
	<path fill="#FFFFFF" d="M35.841,40.994c0.031,0.019-1.056,2.458-1.114,2.6c-0.062,0.148-1.149,2.564-1.061,2.619
		c1.162,0.727,2.124,1.396,1.882,2.903c0.033-0.207,0.263-0.584,0.337-0.756c0.262-0.611,0.52-1.228,0.776-1.841
		c0.256-0.616,0.511-1.232,0.761-1.851c0.086-0.213,0.262-0.531,0.301-0.771C37.966,42.39,37.004,41.721,35.841,40.994z"/>
</g>
</svg>
