<?xml version="1.0" encoding="utf-8"?>
<!-- Generator: Adobe Illustrator 15.0.0, SVG Export Plug-In . SVG Version: 6.00 Build 0)  -->
<!DOCTYPE svg PUBLIC "-//W3C//DTD SVG 1.1//EN" "http://www.w3.org/Graphics/SVG/1.1/DTD/svg11.dtd">
<svg version="1.1" id="Layer_1" xmlns="http://www.w3.org/2000/svg" xmlns:xlink="http://www.w3.org/1999/xlink" x="0px" y="0px"
	 width="100px" height="100px" viewBox="0 0 100 100" enable-background="new 0 0 100 100" xml:space="preserve">
<path fill="#FFFFFF" d="M49.102,27.693c-0.233,0.34-0.45,0.702-0.653,1.08c-0.78-0.993-3.9,8.894-2.891,8.22
	c-0.059,0.186-0.117,0.377-0.176,0.556c-0.168,0.503-0.206,1.003-0.151,1.495c-2.702,0.633-5.248,1.87-6.829,3.902
	c-1.68,2.16-1.879,6.201-2.475,8.737c-0.155,0.659-0.302,1.301-0.409,1.933c-0.021,0.09-0.043,0.179-0.064,0.269
	c0.012-0.038,0.026-0.074,0.039-0.11c-0.222,1.401-0.21,2.763,0.513,4.179c2.544,4.979,13.843,2.186,18.852,4.738
	c-0.023,0.021-0.048,0.044-0.07,0.053c0.032-0.013,0.063-0.026,0.095-0.039c0.558,0.287,1.044,0.634,1.422,1.073
	c-5.662,5.163-16.365,4.068-23.053,2.237c0.026,0.007-2.464,9.478-2.294,9.523c7.313,2.004,15.764,2.801,22.263-1.827
	c2.084-1.483,3.167-3.392,3.898-5.604c-0.018,0.099-0.025,0.189-0.046,0.292c0.048-0.2,0.097-0.399,0.146-0.6
	c0.159-0.51,0.303-1.035,0.437-1.575c0.476-1.928,1.31-4.181,1.673-6.382c1.404-1.317,2.553-2.904,3.216-4.608
	c1.023-2.626,1.995-5.275,2.935-7.933c0.553-1.563,0.887-2.846,0.081-4.403c-0.36-0.696-0.898-1.291-1.541-1.815
	c0.732-3.022,2.666-5.804,3.313-8.863C69.035,24.162,52.736,22.396,49.102,27.693z M58.186,53.556
	c-0.072,0.028-0.146,0.104-0.223,0.207c-3.978-3.676-14.662-0.633-18.757-3.928c3.085-1.573,7.279-1.961,10.037-1.727
	c0.201,0.017,0.499-1.201,0.816-2.77c2.023,1.243,4.38,2.006,6.555,2.916c1.81,0.758,3.897,1.752,5.08,3.268
	C60.607,52.376,59.418,53.078,58.186,53.556z M63.99,41.063c-2.291-1.854-5.958-2.774-8.292-3.774
	c-1.745-0.747-3.364-1.772-4.658-3.11c1.281-0.177,2.598-0.18,3.841-0.104C58.764,34.312,64.719,36.233,63.99,41.063z"/>
<circle fill="#D71921" cx="50" cy="50" r="48.899"/>
<g>
	<path fill="#FFFFFF" d="M43.616,49.159c-1.654,0.751-3.391,1.301-5.075,1.629c-0.501,0.096-1.616,3.904-1.794,4.348
		c-0.159,0.396-1.314,4.307-1.706,4.383c1.463-0.285,2.9-0.738,4.283-1.322c-1.193,2.848-2.379,5.553-1.175,8.66
		c1.514,3.906,6.328,4.91,9.853,3.531c0.655-0.256,1.551-3.742,1.793-4.348c0.219-0.545,1.152-4.166,1.707-4.383
		c-3.601,1.408-7.311,0.383-9.495-2.85c-0.325-0.48-0.55-1.006-0.703-1.555c1.994-1.092,3.814-2.496,5.331-4.176
		c2.097-2.322,3.349-5.895,4.386-9.117c0.479-1.055,0.623-1.51,0.432-1.353c0.141-0.438,0.278-0.867,0.415-1.276
		c0.018-0.054,0.034-0.107,0.052-0.161C48.283,42.945,45.662,45.842,43.616,49.159z"/>
	<path fill="#FFFFFF" d="M56.74,21.387c-0.066-0.361-0.267-0.682-0.574-0.885c-1.076-0.708-2.715,0.259-3.619,0.817
		c-0.134,0.083-0.352,1.292-0.361,1.331c-0.274,1.073-0.542,2.149-0.807,3.227c-0.265,1.076-0.526,2.153-0.78,3.232
		c0.005-0.02-0.219,1.297-0.297,1.346c0.059-0.036,0.123-0.075,0.184-0.112c-0.102,0.425-0.205,0.849-0.305,1.274
		c0.016-0.071-0.353,1.309-0.297,1.346c0.982,0.643,2.189,0.974,3.266,0.353c0.4-0.231,0.724-0.583,0.964-0.976
		c0.117-0.19,0.207-0.396,0.279-0.606c0.034-0.1,0.058-0.202,0.087-0.302c-0.234,1.672,2.693-10.157,2.224-9.009
		c0.025-0.149,0.052-0.297,0.065-0.447C56.788,21.779,56.776,21.581,56.74,21.387z"/>
</g>
</svg>
