<?xml version="1.0" encoding="utf-8"?>
<!-- Generator: Adobe Illustrator 15.0.0, SVG Export Plug-In . SVG Version: 6.00 Build 0)  -->
<!DOCTYPE svg PUBLIC "-//W3C//DTD SVG 1.1//EN" "http://www.w3.org/Graphics/SVG/1.1/DTD/svg11.dtd">
<svg version="1.1" id="Layer_1" xmlns="http://www.w3.org/2000/svg" xmlns:xlink="http://www.w3.org/1999/xlink" x="0px" y="0px"
	 width="230px" height="118px" viewBox="0 0 230 118" enable-background="new 0 0 230 118" xml:space="preserve">
<path fill="#FFFFFF" d="M207.679,89.478l20.112-57.599V20.976h-12.609l9.421-20.461h-12.754l-6.797,20.461h-10.233v12.012
	c-1.178-2.575-2.551-4.782-4.124-6.574c-3.168-3.608-6.927-5.438-11.17-5.438h-9.175h-4.741h-6.401l-4.586,40.015l-5.592-40.015
	h-3.606h-2.203h-3.651l-5.751,40.166l-4.681-40.166h-11.109l9.365,76.679l-14.819-76.679h-4.514l-0.172-0.937l-0.172,0.937h-4.504
	L91.36,82.408l-3.873-13.853c2.029-2.009,3.659-4.671,4.86-7.938c1.422-3.87,2.144-8.427,2.144-13.544
	c0-8.155-1.295-14.286-3.958-18.743c-2.876-4.812-7.241-7.354-12.623-7.354H62.104v8.883c-0.157-0.31-0.304-0.631-0.471-0.93
	c-3.689-6.573-8.865-7.953-12.558-7.953H31.803v8.674c-1.116-2.305-2.477-4.261-4.081-5.828c-2.65-2.588-5.741-3.901-9.188-3.901
	c-3.425,0-8.293,1.274-12.041,7.344c-2.729,4.42-4.113,10.002-4.113,16.592c0,5.835,1.134,10.858,3.37,14.93
	c2.259,4.115,5.865,7.6,10.708,10.356c3.067,1.757,5.162,3.48,6.227,5.124c1.004,1.55,1.513,3.934,1.513,7.084
	c0,3.142-0.558,5.58-1.659,7.247c-0.883,1.338-2.036,1.935-3.739,1.935c-1.891,0-3.264-0.824-4.454-2.671
	c-1.405-2.182-2.117-5.33-2.117-9.358v-3H1.155v3c0,4.793,0.691,9.163,2.053,12.987c1.42,3.988,3.503,7.204,6.191,9.557
	c2.853,2.498,6.016,3.765,9.402,3.765c5.069,0,9.323-2.407,12.304-6.961c0.248-0.378,0.471-0.78,0.697-1.181v7.087h11.049V73.698
	h6.17c5.412,0,9.791-2.598,12.664-7.511c0.149-0.255,0.278-0.533,0.418-0.797v38.366h11.075V72.696h3.881l8.418,31.061h1.763h8.955
	h2.393l3.649-20.092h11.314l3.703,20.092h10.883h0.434h9.406l6.301-42.548l6.078,42.548h9.853l5.398-44.075v44.075h13.732
	l0.029-0.001c4.312-0.086,8.11-1.924,11.289-5.465c1.508-1.679,2.835-3.729,3.979-6.119l-0.168,0.478v11.107h34.174V89.478H207.679z
	 M104.88,69.386l3.019-16.477l3.032,16.477H104.88z M83.416,47.047c0,3.81-0.622,6.822-1.848,8.952
	c-1.235,2.144-2.518,2.418-3.497,2.418h-4.892V35.255l4.827,0c1.649,0.022,2.741,0.723,3.655,2.343
	C82.826,39.664,83.416,42.843,83.416,47.047z M52.793,57.09c-0.932,1.632-2.043,2.329-3.718,2.329h-6.224V35.255H49.3
	c0.979,0.051,2.243,0.424,3.448,2.696c1.216,2.295,1.833,5.515,1.833,9.571C54.581,51.791,53.979,55.011,52.793,57.09z
	 M29.199,61.555c-2.045-2.428-4.869-4.656-8.393-6.62c-2.761-1.539-4.701-3.19-5.764-4.908c-1.034-1.67-1.559-3.809-1.559-6.359
	c0-3.301,0.552-5.836,1.64-7.533c0.87-1.356,1.89-1.935,3.412-1.935c1.16,0,2.511,0.294,3.732,2.474
	c1.229,2.195,1.853,5.392,1.853,9.502v3h7.683v16.205C31.053,64.014,30.189,62.731,29.199,61.555z M179.072,89.478h-2.414V35.254
	h2.944c1.628,0.03,4.035,0.639,6.138,5.554c1.897,4.438,2.859,10.883,2.859,19.156v4.487c0,8.499-1.018,15.059-3.022,19.497
	C183.339,88.904,180.792,89.478,179.072,89.478z M197.354,40.249c-0.462-1.784-0.998-3.439-1.589-4.994h18.739l-16.997,48.698
	c1.381-5.553,2.088-12.025,2.088-19.267v-4.912C199.576,52.488,198.823,45.918,197.354,40.249z"/>
<g>
	<path fill="#337AB7" d="M18.797,63.515c-4.393,0-7.962,1.411-10.629,4.198l-0.262-3.495H1v53.664h7.504v-17.601
		c2.647,2.442,6.139,3.679,10.398,3.679c4.668,0,8.422-1.854,11.158-5.509c2.702-3.61,4.072-8.419,4.072-14.292v-0.598
		c0-6.225-1.377-11.165-4.094-14.685C27.291,65.318,23.509,63.515,18.797,63.515z M16.863,70.034c3.046,0,5.375,1.152,7.121,3.522
		c1.755,2.386,2.645,5.704,2.645,9.864c0,4.742-0.895,8.35-2.661,10.723c-1.756,2.36-4.057,3.508-7.034,3.508
		c-3.805,0-6.563-1.582-8.43-4.835V74.905C10.393,71.628,13.128,70.034,16.863,70.034z"/>
	<path fill="#337AB7" d="M65.963,93.862v-17.52c-0.097-3.97-1.455-7.138-4.037-9.416c-2.566-2.265-6.144-3.412-10.631-3.412
		c-2.824,0-5.454,0.535-7.815,1.591c-2.375,1.062-4.286,2.526-5.678,4.354c-1.409,1.851-2.124,3.804-2.124,5.805v0.5h7.539v-0.5
		c0-1.51,0.705-2.771,2.155-3.854c1.474-1.101,3.337-1.658,5.537-1.658c2.5,0,4.404,0.632,5.66,1.876
		c1.255,1.246,1.891,2.954,1.891,5.077v2.488h-5.828c-5.544,0-9.919,1.138-13.003,3.383c-3.134,2.281-4.723,5.522-4.723,9.633
		c0,3.393,1.269,6.233,3.772,8.443c2.484,2.194,5.701,3.307,9.56,3.307c3.989,0,7.505-1.396,10.467-4.154
		c0.222,1.464,0.494,2.507,0.828,3.175l0.138,0.276h7.629v-1.063l-0.041-0.198C66.399,100.008,65.963,97.271,65.963,93.862z
		 M54.737,95.785c-1.743,1.005-3.61,1.515-5.551,1.515c-2.002,0-3.656-0.54-4.916-1.604c-1.253-1.058-1.862-2.497-1.862-4.399
		c0-4.371,3.747-6.496,11.453-6.496h4.598v7.188C57.683,93.53,56.431,94.808,54.737,95.785z"/>
	<path fill="#337AB7" d="M117.284,93.862v-17.52c-0.097-3.97-1.455-7.138-4.037-9.416c-2.566-2.265-6.144-3.412-10.631-3.412
		c-2.824,0-5.454,0.535-7.815,1.591c-2.363,1.057-4.265,2.514-5.655,4.328v-5.236l-0.276-0.138c-0.733-0.366-1.75-0.545-3.106-0.545
		c-3.564,0-6.453,1.37-8.607,4.075l-0.081-3.372h-7.316v39.039h7.504V75.858c1.46-3.398,4.138-5.051,8.184-5.051
		c0.95,0,1.842,0.071,2.685,0.188c-0.749,1.384-1.132,2.813-1.132,4.27v0.5h7.539v-0.5c0-1.51,0.705-2.771,2.155-3.854
		c1.474-1.101,3.337-1.658,5.537-1.658c2.5,0,4.404,0.632,5.66,1.876c1.255,1.246,1.891,2.954,1.891,5.077v2.488h-5.828
		c-5.544,0-9.919,1.138-13.003,3.383c-3.134,2.281-4.723,5.522-4.723,9.633c0,3.393,1.269,6.233,3.772,8.443
		c2.484,2.194,5.701,3.307,9.56,3.307c3.989,0,7.505-1.396,10.467-4.154c0.222,1.464,0.494,2.507,0.828,3.175l0.138,0.276h7.629
		v-1.063l-0.041-0.198C117.72,100.008,117.284,97.271,117.284,93.862z M106.058,95.785c-1.743,1.005-3.61,1.515-5.551,1.515
		c-2.002,0-3.656-0.54-4.916-1.604c-1.253-1.058-1.862-2.497-1.862-4.399c0-4.371,3.747-6.496,11.453-6.496h4.598v7.188
		C109.003,93.53,107.751,94.808,106.058,95.785z"/>
	<path fill="#337AB7" d="M145.499,67.699c-2.621-2.777-6.132-4.185-10.454-4.185c-4.664,0-8.463,1.833-11.293,5.447
		c-2.8,3.578-4.219,8.442-4.219,14.459c0,6.271,1.424,11.307,4.234,14.965c2.84,3.699,6.611,5.574,11.207,5.574
		c4.146,0,7.555-1.26,10.152-3.749v2.019c0,3.082-0.845,5.495-2.51,7.171c-1.665,1.675-4.035,2.524-7.045,2.524
		c-3.854,0-7.166-1.677-9.842-4.982l-0.377-0.465l-4.016,4.645l0.215,0.317c1.428,2.106,3.521,3.786,6.222,4.993
		c2.677,1.194,5.454,1.801,8.255,1.801c5.032,0,9.105-1.479,12.107-4.396c3.006-2.92,4.529-6.956,4.529-11.995V64.218h-6.906
		L145.499,67.699z M145.127,75.112v17.116c-1.848,3.507-4.641,5.212-8.535,5.212c-3.021,0-5.304-1.134-6.977-3.466
		c-1.688-2.35-2.543-5.652-2.543-9.815c0-4.698,0.867-8.278,2.576-10.641c1.697-2.345,3.99-3.484,7.014-3.484
		C140.443,70.034,143.213,71.695,145.127,75.112z"/>
	<path fill="#337AB7" d="M203.6,93.862v-17.52c-0.097-3.97-1.455-7.138-4.036-9.416c-2.567-2.265-6.145-3.412-10.632-3.412
		c-2.823,0-5.453,0.535-7.815,1.591c-2.364,1.057-4.266,2.514-5.655,4.329v-5.237l-0.276-0.138c-0.733-0.366-1.75-0.545-3.106-0.545
		c-3.564,0-6.453,1.37-8.606,4.075l-0.081-3.372h-7.316v39.039h7.504V75.858c1.46-3.398,4.138-5.051,8.184-5.051
		c0.95,0,1.843,0.071,2.685,0.188c-0.749,1.385-1.132,2.813-1.132,4.27v0.5h7.539v-0.5c0-1.51,0.705-2.771,2.154-3.854
		c1.475-1.101,3.338-1.658,5.537-1.658c2.499,0,4.403,0.632,5.659,1.876c1.255,1.245,1.892,2.953,1.892,5.077v2.488h-5.828
		c-5.543,0-9.918,1.138-13.003,3.383c-3.135,2.281-4.724,5.522-4.724,9.633c0,3.393,1.27,6.233,3.772,8.443
		c2.484,2.194,5.7,3.307,9.56,3.307c3.989,0,7.506-1.396,10.467-4.154c0.223,1.465,0.495,2.508,0.828,3.175l0.139,0.276h7.629
		v-1.063l-0.041-0.198C204.035,100.007,203.6,97.271,203.6,93.862z M192.373,95.785c-1.742,1.005-3.61,1.515-5.551,1.515
		c-2.001,0-3.655-0.54-4.916-1.604c-1.252-1.058-1.861-2.497-1.861-4.399c0-4.371,3.746-6.496,11.453-6.496h4.598v7.188
		C195.319,93.53,194.067,94.808,192.373,95.785z"/>
	<path fill="#337AB7" d="M228.204,48.129c-1.513-0.405-3.059-0.611-4.594-0.611c-4.105,0-7.336,1.174-9.604,3.49
		c-2.264,2.313-3.412,5.613-3.412,9.807v3.402h-6.012v6.027h6.012v33.012h7.504V70.245h8.121v-6.027h-8.121v-3.521
		c0-2.163,0.534-3.834,1.589-4.967c1.044-1.123,2.565-1.692,4.521-1.692c1.204,0,2.355,0.104,3.422,0.308l0.555,0.106l0.417-6.216
		L228.204,48.129z"/>
</g>
</svg>
